<?xml version="1.0" standalone="no"?>
<!DOCTYPE svg PUBLIC "-//W3C//DTD SVG 20010904//EN"
 "http://www.w3.org/TR/2001/REC-SVG-20010904/DTD/svg10.dtd">
<svg version="1.0" xmlns="http://www.w3.org/2000/svg"
 width="488.000000pt" height="488.000000pt" viewBox="0 0 488.000000 488.000000"
 preserveAspectRatio="xMidYMid meet">
<metadata>
Created by potrace 1.11, written by Peter Selinger 2001-2013
</metadata>
<g transform="translate(0.000000,488.000000) scale(0.100000,-0.100000)"
fill="#000000" stroke="none">
<path d="M2110 4520 c-174 -38 -298 -85 -581 -224 -206 -100 -320 -164 -326
-182 -2 -6 15 -17 37 -24 41 -14 45 -18 32 -35 -21 -29 -47 -32 -110 -14 -34
10 -136 32 -225 48 -89 17 -183 38 -208 46 -26 8 -60 15 -75 15 -30 0 -161 53
-207 83 -14 9 -28 25 -32 36 -5 16 -10 18 -37 10 -41 -11 -65 -34 -79 -76 -13
-42 2 -69 54 -98 31 -16 35 -22 30 -50 -4 -23 2 -43 19 -71 14 -21 44 -75 67
-119 61 -113 123 -198 213 -288 43 -43 78 -82 78 -86 0 -22 -29 -32 -65 -22
-34 9 -39 8 -62 -17 -45 -47 -109 -153 -173 -287 -86 -181 -117 -261 -125
-330 -4 -33 -9 -69 -11 -80 -3 -11 -7 -97 -11 -190 -5 -160 -4 -178 21 -300
23 -108 28 -155 28 -280 -1 -174 -9 -209 -78 -316 -39 -60 -54 -74 -115 -107
-109 -58 -133 -75 -151 -111 -27 -54 -17 -64 125 -126 66 -29 149 -55 175 -55
22 0 24 -3 18 -37 -3 -21 -9 -113 -12 -205 -8 -192 0 -258 52 -442 56 -195
109 -284 163 -271 38 9 80 53 85 89 3 17 8 57 10 88 10 108 49 163 181 260 55
41 81 55 85 46 4 -7 3 -51 -1 -98 -22 -240 -22 -255 -5 -272 18 -19 48 -14 91
16 17 11 32 23 35 26 3 3 32 28 65 55 33 28 70 61 83 75 13 14 47 50 76 80 59
63 88 108 106 165 18 56 24 60 62 36 74 -47 83 -59 70 -93 -7 -21 -8 -37 -1
-49 26 -49 271 -176 404 -209 99 -25 341 -36 445 -20 30 4 75 11 100 14 25 4
104 18 175 31 72 13 141 26 155 29 85 15 297 69 354 90 106 40 185 87 214 125
35 47 49 61 59 61 4 0 26 -40 48 -88 46 -101 98 -183 146 -230 27 -27 128 -99
214 -154 17 -11 70 20 89 53 12 21 16 38 10 57 -4 15 -6 32 -4 37 1 6 6 53 10
106 6 86 31 192 50 212 4 4 26 -24 50 -63 78 -129 187 -216 262 -208 27 3 32
0 33 -20 4 -49 49 -50 99 -2 27 26 29 36 38 131 9 111 55 282 129 479 47 122
69 208 69 266 0 40 2 42 46 59 44 17 150 101 179 142 19 28 26 89 12 101 -7 5
-29 15 -50 22 -38 12 -131 97 -207 190 -49 60 -58 79 -82 173 -17 67 -22 113
-22 247 -1 91 3 199 9 240 11 87 13 446 3 505 -4 23 -14 63 -23 90 -19 57
-114 240 -156 302 -16 23 -29 44 -29 47 0 23 -182 239 -293 349 -146 142 -626
511 -742 569 -70 36 -155 -17 -155 -96 0 -20 -7 -24 -72 -34 -92 -15 -107 -18
-140 -31 -23 -9 -39 -5 -108 29 -55 28 -80 46 -80 58 0 23 -104 105 -138 110
-15 2 -54 7 -87 12 -73 10 -337 10 -385 0z"/>
</g>
</svg>
